<svg id="Layer_1" data-name="Layer 1" xmlns="http://www.w3.org/2000/svg" width="128" height="128" viewBox="0 0 128 128">
  <title>icon</title>
  <rect width="128" height="128" style="fill: #3796db"/>
  <path d="M100.55,59a39.38,39.38,0,0,0-55.6-30.55c-6.2,2.85-11.71,6.79-15,13-3.62,6.81-4.11,13.73.29,20.39,5.5,8.28,14,12.44,23,16.23V75.88c0-6.15.05-12.31,0-18.46,0-1.53.28-2.09,2-2q7.23.19,14.48,0c1.62,0,2,.44,2,2-.06,14.53,0,29.07,0,43.61a4.57,4.57,0,0,0,.22,2.22c.57-.16,1.14-.3,1.71-.49A40,40,0,0,0,100.55,59ZM62.4,51.77A10.41,10.41,0,1,1,72.67,41.3,10.44,10.44,0,0,1,62.4,51.77Z" style="fill: #fff"/>
</svg>
